# xmcd CD database file
#
# Track frame offsets:
#	150
#	15996
#	39990
#
# Disc length: 744 seconds
#
# Revision: 1
# Processed by: cddbd v1.5.1PL0 Copyright (c) Steve Scherf et al.
# Submitted via: CDex 1.40Release
#
DISCID=1302e603
DTITLE=KEY GOT CREW - 陽炎
DYEAR=2004
DGENRE=JPop
TTITLE0=陽炎
TTITLE1=April Songs
TTITLE2=Funny Funky
EXTD=YEAR: 2004
EXTT0=
EXTT1=
EXTT2=
PLAYORDER=
